<?xml version="1.0" standalone="no"?><!DOCTYPE svg PUBLIC "-//W3C//DTD SVG 1.1//EN" "http://www.w3.org/Graphics/SVG/1.1/DTD/svg11.dtd"><svg t="1552291996622" class="icon" style="" viewBox="0 0 1024 1024" version="1.1" xmlns="http://www.w3.org/2000/svg" p-id="12823" xmlns:xlink="http://www.w3.org/1999/xlink" width="200" height="200"><defs><style type="text/css"></style></defs><path d="M158.1 64c0.7 0 1.4 0 2.1 0l0.1 0 0.1 0c5.4 0.2 9.6 0.8 11 1.7 3.4 1.9 10 8.4 14.9 13.2 25.5 33 51.3 66.2 76.3 98.3 22 28.3 44.7 57.5 67.1 86.4l0.3 0.8 6.7 8.8c1.9 2.4 3.3 5.3 4.3 8.6 0.8 3.7 1 8.2 0.7 13.3-1 5-2.1 7.7-2.7 8.9l-2.6 4.1c-1.7 2.6-4.3 5.3-7.8 7.8l-13.4 9.6 0 0.1c-19 13.7-39.7 28.9-63 46.4l-13 9.7-6.8 14.8c-18.1 39.3-12.3 86.6 15.4 126.3l0 0.1 0 0.1c34.6 49.3 73.4 95.5 115.3 137.3 42.1 42.2 88.5 80.9 137.9 115.3l0 0 0 0c24.6 17 51.6 26 78.3 26 16.7 0 33.1-3.5 47.5-10.1l15.2-7 9.8-13.6c18.9-26 38.2-52.3 55.2-75.5l1.9-2.5c2.2-2.4 4.9-4.4 8.4-6.6l0.3-0.2 0.3-0.2c2.5-1.5 5.4-2.8 8.1-3.4l2-0.2c2.3-0.2 4.4-0.4 6.3-0.4 3 0 5.6 0.3 7.9 0.9l0 0c2.6 1 6.4 2.8 11.6 6.7l26.3 19.9c35.1 27.3 70.5 54.7 105 81.4 19.3 15 38.7 30 58 45 2.1 2.1 4.5 4.4 7.4 6.6 2.3 1.9 4 3.9 5.3 6.6 2.4 5.1 3.7 9.9 3.8 14.3 0.3 7.2-1 10.8-1.5 12.1l-2.6 5.8c-1.7 2.8-3.6 5.3-5.7 7.2l-0.5 0.4-0.5 0.5c-6.3 6.1-16.5 14.8-30.2 23.4-1 0.4-2 0.9-3.1 1.5l-2.6 1.3-2.5 1.5c-15.7 9.7-31.7 17-48.7 22.3l-0.7 0.2-0.7 0.2c-40 13.4-82.9 20.2-127.5 20.2-52.4 0-107-9.2-162.5-27.5-51.9-17.4-103.7-42.5-153.9-74.6-49.3-31.5-96-69.1-139-111.8-42.5-42.8-80.1-89.7-111.7-139.2-32.1-50.3-57.2-102.2-74.7-154.2-16.5-50.1-25.7-99.8-27.3-147.8-1.6-49.6 5-97.4 19.7-141.9 6.6-19.2 14.7-37.2 24.3-53.4 8.5-14.3 18.4-26.2 26.3-35.2 4-3.8 8.3-6.9 11.8-8.3 0.8-0.3 1.8-0.7 3-1.2C152 64.3 155 64 158.1 64M158.1 0c-11.2 0-22.3 1.7-32.6 5.1-1.4 1.1-2.2 1.1-3.3 1.7-12.3 5-24.1 13.4-34.1 23.5C76.9 42.9 64.3 58.3 53.2 77c-10.9 18.5-21.3 40.3-29.9 65.7C-12 249.5-5.3 363.9 30.8 472.9c38.9 116 111 227 201.9 318.5 91.4 90.8 201.9 163 317.9 201.8 60.1 19.8 121.7 30.7 182.7 30.7 50.2 0 99.8-7.4 147.8-23.5 25.2-7.8 45.8-18.2 63.4-29.1 1.1-0.6 2-0.6 2.5-0.9 18.5-10.9 34.1-23.2 46.4-34.9 10.4-9.5 18.5-21.5 23.8-34.1l-0.3 0c5.6-12.6 7.5-26.5 7-40.5-0.6-14.3-4.5-27.7-10.3-40-5.6-11.2-13.4-21-23.8-29.1-0.9-0.5-2-2.2-2.5-2.8-64.9-50.3-130-100.7-194.6-151l0 0.6c-10.4-7.8-20.7-13.4-31.9-17.1-0.5-0.3-1.7-0.6-2.2-0.6-7.7-2-15.7-3-24-3-4.3 0-8.7 0.2-13.1 0.7-0.3 0-0.9 0-1.4 0-12.9 1.7-25.5 6.4-36.1 13.1-10.9 6.7-20.4 14.8-28.5 25.7 0.3 0 0.3 0 0.3 0-18.5 25.2-36.9 50.3-55.4 75.8-4.6 2.1-11.7 4.3-20.7 4.3-11.3 0-25.7-3.4-41.9-14.6-45.9-31.9-89.2-67.9-129.2-107.9-39.7-39.7-75.8-82.7-108.2-128.9-20.1-28.8-14.5-52.6-9.8-62.9 24.3-18.2 48.9-36.3 73.2-53.7 1.1 0 1.7-0.5 2.2-1.7 10.1-7.2 18.5-15.9 24.6-25.7 0.5-0.5 1.1-1.7 1.7-2.5 6.7-10.3 10.6-22.9 12.9-35.8 1.4-13.4 0.8-26.3-2.3-38.6-3.1-10.9-8.1-21.5-15.4-31-0.5-1.7-1.1-2.3-1.9-3.1-50.3-65.1-100.7-129.4-151-194.6C211.1 13 197.7 1.5 163 0.1 161.4 0 159.8 0 158.1 0L158.1 0z" p-id="12824"></path></svg>